# xmcd
#
# Track frame offsets: 
#        150
#        12518
#        23778
#        38730
#        54038
#        64808
#        77115
#        89675
#        102403
#        113458
#        132668
#        143295
#        159620
#        170375
#        182938
#        196480
#        211710
#
# Disc length: 2980 seconds
#
# Revision: 0
# Processed by: cddbd v1.5.2PL0 Copyright (c) Steve Scherf et al.
# Submitted via: ExactAudioCopy v0.95b3
#
DISCID=e00ba211
DTITLE=Aretha Franklin  - 30 Greatest Hits [CD1]
DYEAR=1900
DGENRE=
TTITLE0=I Never Loved A Man (The Way I Love You)
TTITLE1=Respect
TTITLE2=Do Right Woman, Do Right Man
TTITLE3=Dr. Feelgood
TTITLE4=Save Me
TTITLE5=Baby I Love You
TTITLE6=(You Make Me Feel Like) A Natural Woman
TTITLE7=Chain Of Fools
TTITLE8=Since You've Been Gone
TTITLE9=Ain't No Way
TTITLE10=Think
TTITLE11=I Say A Little Prayer
TTITLE12=The House That Jack Built
TTITLE13=See Saw
TTITLE14=The Weight
TTITLE15=Share Your Love With Me
TTITLE16=Eleanor Rigby
EXTD=
EXTT0=
EXTT1=
EXTT2=
EXTT3=
EXTT4=
EXTT5=
EXTT6=
EXTT7=
EXTT8=
EXTT9=
EXTT10=
EXTT11=
EXTT12=
EXTT13=
EXTT14=
EXTT15=
EXTT16=
PLAYORDER=
